<?xml version="1.0" encoding="UTF-8"?>
<!DOCTYPE svg PUBLIC "-//W3C//DTD SVG 1.1//EN" "http://www.w3.org/Graphics/SVG/1.1/DTD/svg11.dtd">
<!-- Creator: CorelDRAW 2026 -->
<svg xmlns="http://www.w3.org/2000/svg" xml:space="preserve" width="36.723mm" height="28.3017mm" version="1.1" style="shape-rendering:geometricPrecision; text-rendering:geometricPrecision; image-rendering:optimizeQuality; fill-rule:evenodd; clip-rule:evenodd"
viewBox="0 0 650.13 501.05"
 xmlns:xlink="http://www.w3.org/1999/xlink"
 xmlns:xodm="http://www.corel.com/coreldraw/odm/2003">
 <defs>
  <style type="text/css">
   <![CDATA[
    .fil3 {fill:#FEFEFE}
    .fil0 {fill:#EBECEC}
    .fil2 {fill:#C5C6C6}
    .fil4 {fill:#E0E6D4}
    .fil1 {fill:black}
   ]]>
  </style>
 </defs>
 <g id="Outline">
  <metadata id="CorelCorpID_0Corel-Layer"/>
  <g id="_1274197908192">
   <path class="fil0" d="M197.33 38.88c-0.38,-7.76 18.16,-15.44 36.26,-18.17 54.74,-8.28 113.9,-14.72 172.31,-13.39 43.73,1 112.3,2.91 121.48,20.09 39.84,74.52 31.95,152.84 11.48,228.61 -5.18,19.17 16.63,43.6 -3.79,57.49 -23.19,15.78 -91.25,2.08 -136.9,1.81 -67.64,-0.4 -183.78,22.22 -202.71,-3.83 -21.5,-87.24 6.36,-181.87 1.87,-272.61z"/>
   <polygon class="fil0" points="22.33,92.44 35.72,80.97 150.5,80.97 150.5,385.14 94.07,444.45 16.59,444.45 "/>
   <path class="fil1" d="M254.34 501.05c-58.47,-8.23 -123.75,-0.57 -183.64,-4.54 -27.53,-6.81 45.7,-84.01 51.66,-93.1 9.65,-10.5 21.57,-23.56 34.63,-29.23 111.83,-18.45 235.01,-0.57 348.54,-9.08 79.47,0 96.78,-1.7 132.26,76.35 21.86,53.64 17.03,49.1 -33.21,55.35 -116.09,3.12 -234.73,-2.84 -350.25,4.26z"/>
   <path class="fil2" d="M217.44 491.11c-13.06,0 -118.64,6.24 -135.1,-4.54 -0.57,-6.53 3.97,-4.54 8.8,-5.11 24.12,3.12 208.05,12.49 229.62,-1.99 0,-6.81 -39.45,-2.27 -47.97,-3.97 -61.02,1.42 -118.64,-0.57 -179.38,-3.12 -28.67,-8.51 61.02,-87.13 75.21,-92.24 135.1,-6.81 277.02,-12.2 411.27,-1.13 18.45,7.38 71.24,97.92 53.36,101.89 -138.22,8.23 -278.15,2.27 -415.81,10.22z"/>
   <path class="fil1" d="M148.47 461.59c-11.07,-12.77 16.18,-17.31 24.69,-16.75 125.17,1.7 250.05,8.8 374.94,2.27 4.82,0 60.74,-5.68 45.41,9.65 -125.17,1.42 -257.15,-5.68 -381.75,1.99 -20.15,0 -43.43,0 -63.29,2.84z"/>
   <path class="fil1" d="M13.08 458.76c-26.68,0 -3.97,-93.66 -5.96,-119.78 3.12,-80.32 0.57,-160.93 3.69,-240.97 0,-1.99 1.7,-15.89 5.11,-8.8 4.26,77.77 -4.54,159.23 3.97,236.15 -3.41,28.67 -15.89,118.07 16.46,120.63 56.2,13.91 11.35,11.92 -23.28,12.77z"/>
   <path class="fil1" d="M554.06 430.66c-15.33,-10.22 37.46,-10.22 41.72,-7.38 0,10.79 -30.94,6.53 -41.72,7.38z"/>
   <path class="fil1" d="M517.45 429.24c-93.66,-8.8 -192.72,1.99 -286.67,-1.7 -22.42,0 -98.2,7.38 -45.7,-11.64 112.68,-3.69 231.04,-2.55 343.72,6.81 21.57,0 0.28,6.24 -11.35,6.53z"/>
   <path class="fil1" d="M171.46 414.2c-3.69,-3.69 0.28,-10.5 1.99,-14.19 21,-21 142.48,-9.08 168.88,-10.5 66.13,-0.29 131.98,-0.85 198.11,-0.85 34.91,9.93 -69.54,6.24 -75.21,5.96 -96.78,3.12 -203.5,-10.5 -293.76,19.59z"/>
   <path class="fil1" d="M567.4 399.44c-20.44,-3.41 1.13,-14.48 7.38,-5.11 0,5.11 -2.55,4.54 -7.38,5.11z"/>
   <path class="fil1" d="M227.09 364.52c-3.69,-1.7 -2.27,-24.41 -11.92,-31.79 -55.06,-2.55 -34.63,-31.79 -34.63,-78.34 -5.11,-50.52 1.7,-104.73 0.85,-155.82 18.16,-73.51 -23.56,-84.3 62.44,-90.26 43.71,-6.24 277.58,-17.6 292.91,5.68 0,8.51 -10.5,3.4 -15.33,0.57 -25.26,-2.84 -309.94,-18.73 -327.26,21.57 -4.54,90.26 -10.5,186.19 -2.84,276.16 13.34,26.96 313.63,4.54 338.32,4.54 26.4,-17.6 13.06,-243.24 2.27,-271.91 -1.42,-10.79 -10.5,-29.52 10.5,-17.03 22.14,30.94 12.2,237 6.53,251.47 -1.42,41.44 -1.13,39.74 -42.01,43.43 -17.6,4.26 -2.55,55.06 -19.02,23.56 -3.97,-16.75 1.13,-18.45 -17.03,-19.3 -46.55,4.54 -188.46,23.56 -233.02,5.68 -8.52,0 3.12,24.98 -10.79,31.79z"/>
   <path class="fil1" d="M151.03 360.55c-11.07,-5.39 7.62,-152.14 -4.54,-175.97 -12.2,-23.91 26.4,-87.7 -18.45,-100.76 -0.85,0 -119.49,-4.26 -83.73,-13.06 38.32,-1.99 74.93,1.13 112.4,2.84 9.08,9.08 1.7,202.37 -1.13,230.19 2.84,5.68 2.27,55.63 -4.54,56.77z"/>
   <path class="fil1" d="M121.51 359.42c-5.68,-11.35 -1.99,-86.85 -1.99,-104.45 -6.24,-49.95 0.57,-58.75 -53.08,-55.91 -68.12,-7.1 50.8,-17.88 58.19,-7.95 0,21.29 13.91,162.63 -3.12,168.31z"/>
   <path class="fil1" d="M309.12 287.89c-19.58,-1.7 -90.82,2.55 -81.74,-29.52 4.26,0 5.68,5.11 8.8,7.38 70.39,21.85 155.25,14.19 227.63,14.19 7.95,-3.97 57.62,-2.55 27.81,3.97 -61.02,2.27 -121.48,2.55 -182.5,3.97z"/>
   <path class="fil1" d="M80.64 161.87c-15.04,-7.38 -41.44,1.99 -41.44,-20.44 0,-3.69 8.52,3.69 9.37,4.26 10.22,3.97 91.96,0 62.44,14.76 -9.93,0.29 -20.15,0.85 -30.37,1.42z"/>
   <path class="fil1" d="M123.21 138.31c-7.38,-7.38 1.42,-13.91 -10.5,-19.87 -6.24,0 -77.2,3.41 -69.54,-4.26 21.57,-3.41 96.79,-19.58 82.6,23.27 -0.85,0.29 -1.7,0.57 -2.55,0.85z"/>
   <polygon class="fil3" points="240.42,72.36 415.45,68.36 491.03,76.18 499.2,207.22 494.85,281.84 244.24,273.23 "/>
   <path class="fil1" d="M242.99 265.18c-7.66,-8.8 -13.62,-198.96 0.57,-208.33 12.77,0 -8.23,17.6 11.35,13.34 76.07,0 154.4,-15.33 230.47,-5.96 20.72,12.49 20.44,173.42 11.35,187.33 -0.85,0.29 -9.93,-150.43 -10.79,-161.21 -5.68,-39.74 -204.92,-16.18 -239.84,2.84 -1.7,53.36 -5.68,107 -1.13,160.36 0.57,3.69 1.7,9.93 -1.99,11.64z"/>
   <path class="fil4" d="M247.45 85.98c58.83,-37.97 139.86,-14.15 209.79,-10.65 11.04,0.55 22.38,11.51 24.49,22.36 10.8,55.56 9.15,101.32 3.2,157.61 -1.2,11.28 -17.44,13.01 -28.75,13.84 -47.08,3.46 -88.3,15.68 -135.25,10.65 -23.55,-2.52 -37,-6.35 -55.38,-21.3 -11.23,-9.14 -18.63,-28.12 -19.17,-42.6 5.84,-23.81 -3.12,-103.41 1.07,-129.92z"/>
  </g>
 </g>
</svg>
